<svg width="88" height="96" viewBox="0 0 88 96" fill="none" xmlns="http://www.w3.org/2000/svg">
<g filter="url(#filter0_d_3070_55330)">
<circle cx="43.6366" cy="35.6366" r="30.1366" fill="#3FC919" stroke="white" stroke-width="3"/>
<path d="M36.5183 64.6633L51.5188 64.8526L45.9579 74.2341C45.1943 75.5223 43.338 75.5453 42.5427 74.2764L36.5183 64.6633Z" fill="white"/>
</g>
<path d="M53.6854 22.2563H55.7383V24.3068C55.7383 27.811 52.889 30.6546 49.3829 30.6546H47.3301V28.6042C47.3301 25.1 50.1793 22.2563 53.6854 22.2563Z" fill="black"/>
<path d="M46.6508 54.0005L45.225 18.0005H40.03L39.2381 32.0448C39.1992 32.7443 38.3387 33.0574 37.8581 32.5454L34.3932 28.8652L31.5371 33.5329L37.8902 41.6934C38.3754 42.3152 38.6157 43.0901 38.5722 43.8764L38.0023 54.0005H46.6508Z" fill="black"/>
<defs>
<filter id="filter0_d_3070_55330" x="0" y="0" width="87.2734" height="97.0566" filterUnits="userSpaceOnUse" color-interpolation-filters="sRGB">
<feFlood flood-opacity="0" result="BackgroundImageFix"/>
<feColorMatrix in="SourceAlpha" type="matrix" values="0 0 0 0 0 0 0 0 0 0 0 0 0 0 0 0 0 0 127 0" result="hardAlpha"/>
<feOffset dy="8"/>
<feGaussianBlur stdDeviation="6"/>
<feComposite in2="hardAlpha" operator="out"/>
<feColorMatrix type="matrix" values="0 0 0 0 0 0 0 0 0 0 0 0 0 0 0 0 0 0 0.16 0"/>
<feBlend mode="normal" in2="BackgroundImageFix" result="effect1_dropShadow_3070_55330"/>
<feBlend mode="normal" in="SourceGraphic" in2="effect1_dropShadow_3070_55330" result="shape"/>
</filter>
</defs>
</svg>
